<svg width="52.5" height="48" xmlns="http://www.w3.org/2000/svg" xml:space="preserve" version="1.1">

 <g>
  <title>Layer 1</title>
  <g stroke-width="0" id="svg_1" enable-background="new" class="st0">
   <path stroke="#FFFFFF" id="svg_2" fill="#000" d="m12,41.05c-2.7,-4.3 -4,-8.7 -4,-13.1c0,-3.9 1,-7.6 3,-11.2c2,-3.6 4.8,-6.8 8.6,-9.8l4.5,2.7c0.4,0.2 0.7,0.5 0.8,0.8c0.2,0.3 0.2,0.7 0.2,1c0,0.4 -0.1,0.7 -0.2,1c-0.2,0.3 -0.3,0.6 -0.5,0.8c-0.5,0.6 -1,1.3 -1.6,2c-0.6,0.8 -1.1,1.6 -1.6,2.5c-0.5,0.9 -0.9,1.9 -1.2,3c-0.3,1.1 -0.5,2.3 -0.5,3.5c0,1.3 0.2,2.7 0.6,4.2c0.4,1.5 1.1,3.1 2.2,4.7c0.4,0.5 0.5,1.1 0.5,1.6c0,1.2 -0.7,2.1 -2.1,2.6l-8.7,3.7zm19.4,0c-2.7,-4.3 -4,-8.7 -4,-13.1c0,-3.9 1,-7.6 3,-11.2c2,-3.6 4.8,-6.8 8.6,-9.8l4.5,2.7c0.4,0.2 0.7,0.5 0.8,0.8c0.2,0.3 0.2,0.7 0.2,1c0,0.4 -0.1,0.7 -0.2,1c-0.2,0.3 -0.3,0.6 -0.5,0.8c-0.5,0.6 -1,1.3 -1.6,2c-0.6,0.8 -1.1,1.6 -1.5,2.5c-0.5,0.9 -0.9,1.9 -1.2,3c-0.3,1.1 -0.5,2.3 -0.5,3.5c0,1.3 0.2,2.7 0.6,4.2c0.4,1.5 1.1,3.1 2.2,4.7c0.4,0.5 0.5,1.1 0.5,1.6c0,1.2 -0.7,2.1 -2.1,2.6l-8.8,3.7z" class="st1"/>
  </g>
  <path id="svg_5" d="m80.13881,9.00002l-12.36113,10.25921" opacity="NaN" stroke="#FFFFFF" fill="#000"/>
 </g>
</svg>