<svg width="512" height="512" xmlns="http://www.w3.org/2000/svg" role="img" class="svg-inline--fa fa-moon fa-w-16" data-icon="moon" data-prefix="far" focusable="false" aria-hidden="true">

 <g>
  <title>Layer 1</title>
  <path stroke="#ffffff" id="svg_1" d="m279.135,512c78.756,0 150.982,-35.804 198.844,-94.775c28.27,-34.831 -2.558,-85.722 -46.249,-77.401c-82.348,15.683 -158.272,-47.268 -158.272,-130.792c0,-48.424 26.06,-92.292 67.434,-115.836c38.745,-22.05 28.999,-80.788 -15.022,-88.919a257.936,257.936 0 0 0 -46.735,-4.277c-141.36,0 -256,114.575 -256,256c0,141.36 114.576,256 256,256zm0,-464c12.985,0 25.689,1.201 38.016,3.478c-54.76,31.163 -91.693,90.042 -91.693,157.554c0,113.848 103.641,199.2 215.252,177.944c-38.136,46.988 -96.344,77.024 -161.575,77.024c-114.875,0 -208,-93.125 -208,-208s93.125,-208 208,-208z" fill="#ffffff"/>
 </g>
</svg>